<svg xmlns="http://www.w3.org/2000/svg" xmlns:xlink="http://www.w3.org/1999/xlink" id="Capa_1" x="0px" y="0px" viewBox="0 0 511.998 511.998" style="enable-background:new 0 0 511.998 511.998;" xml:space="preserve">
<g>
	<g>
		<path d="M200.47,362.087h-73.688c-5.545,0-10.039,4.495-10.039,10.039s4.495,10.039,10.039,10.039h73.688    c5.545,0,10.039-4.495,10.039-10.039S206.015,362.087,200.47,362.087z"></path>
	</g>
</g>
<g>
	<g>
		<path d="M226.783,362.089c-12.92,0-12.941,20.079,0,20.079C239.703,382.167,239.725,362.089,226.783,362.089z"></path>
	</g>
</g>
<g>
	<g>
		<path d="M511.997,96.347c0.002-0.334-0.014-0.669-0.048-1.002c-0.003-0.034-0.011-0.068-0.015-0.102    c-0.033-0.292-0.074-0.583-0.133-0.872c-0.027-0.134-0.066-0.263-0.099-0.396c-0.045-0.187-0.086-0.373-0.144-0.558    c-0.047-0.155-0.107-0.303-0.163-0.455c-0.056-0.157-0.107-0.314-0.172-0.469c-0.072-0.174-0.159-0.339-0.241-0.507    c-0.061-0.127-0.115-0.255-0.183-0.38c-0.138-0.254-0.288-0.499-0.446-0.739c-0.023-0.034-0.041-0.07-0.064-0.105    c-0.188-0.278-0.388-0.545-0.602-0.802c-0.004-0.005-0.008-0.011-0.012-0.016c-0.058-0.07-0.123-0.13-0.184-0.199    c-0.154-0.174-0.306-0.347-0.471-0.511c-0.119-0.118-0.247-0.226-0.371-0.337c-0.117-0.105-0.231-0.214-0.353-0.313    c-0.147-0.119-0.299-0.227-0.451-0.337c-0.111-0.081-0.221-0.166-0.336-0.242c-0.154-0.101-0.312-0.193-0.47-0.285    c-0.125-0.073-0.248-0.151-0.376-0.219c-0.149-0.078-0.3-0.147-0.452-0.218c-0.147-0.069-0.292-0.14-0.443-0.202    c-0.14-0.057-0.282-0.104-0.425-0.156c-0.168-0.06-0.333-0.121-0.505-0.173c-0.138-0.041-0.277-0.072-0.416-0.107    c-0.178-0.045-0.353-0.092-0.534-0.128c-0.157-0.03-0.315-0.049-0.473-0.072c-0.164-0.024-0.326-0.053-0.493-0.068    c-0.226-0.022-0.453-0.028-0.68-0.034c-0.095-0.003-0.188-0.014-0.283-0.014h-0.047c-0.002,0-0.003,0-0.005,0H10.093    c-0.003,0-0.005,0-0.008,0h-0.045c-0.093,0-0.184,0.011-0.276,0.014c-0.23,0.006-0.459,0.013-0.687,0.035    c-0.167,0.016-0.329,0.045-0.493,0.069c-0.158,0.023-0.315,0.041-0.472,0.072c-0.183,0.036-0.36,0.083-0.54,0.13    c-0.137,0.034-0.273,0.065-0.409,0.105c-0.175,0.052-0.344,0.115-0.515,0.177c-0.138,0.049-0.277,0.095-0.414,0.152    c-0.155,0.063-0.303,0.136-0.454,0.207c-0.148,0.069-0.296,0.135-0.442,0.213c-0.133,0.07-0.259,0.149-0.388,0.225    c-0.155,0.09-0.309,0.179-0.459,0.279c-0.118,0.079-0.231,0.166-0.346,0.25c-0.149,0.107-0.298,0.213-0.441,0.329    c-0.125,0.101-0.241,0.213-0.361,0.32c-0.121,0.109-0.247,0.215-0.364,0.331c-0.166,0.164-0.319,0.338-0.474,0.514    c-0.059,0.067-0.124,0.128-0.181,0.197c-0.004,0.005-0.008,0.011-0.012,0.016c-0.214,0.257-0.416,0.524-0.602,0.802    c-0.023,0.034-0.041,0.07-0.064,0.105c-0.158,0.24-0.309,0.485-0.446,0.739c-0.067,0.125-0.121,0.253-0.183,0.38    c-0.082,0.168-0.168,0.334-0.241,0.507c-0.064,0.154-0.114,0.31-0.171,0.466c-0.055,0.153-0.116,0.303-0.164,0.459    C0.387,93.605,0.346,93.79,0.3,93.975c-0.033,0.133-0.072,0.264-0.1,0.4c-0.058,0.289-0.1,0.58-0.133,0.872    c-0.004,0.034-0.012,0.067-0.015,0.102c-0.034,0.333-0.05,0.668-0.05,1.002c0,0.003-0.001,0.01-0.001,0.017v319.263    c0,0.007,0.001,0.014,0.001,0.021c0,0.334,0.017,0.669,0.05,1.002c0.004,0.041,0.013,0.08,0.018,0.12    c0.032,0.286,0.073,0.57,0.13,0.853c0.028,0.141,0.069,0.275,0.103,0.413c0.044,0.18,0.084,0.361,0.139,0.539    c0.049,0.16,0.111,0.313,0.168,0.47c0.055,0.152,0.103,0.304,0.167,0.454c0.074,0.178,0.163,0.347,0.246,0.519    c0.059,0.122,0.111,0.247,0.177,0.367c0.14,0.258,0.292,0.507,0.453,0.751c0.02,0.031,0.036,0.063,0.057,0.093    c0.188,0.278,0.39,0.545,0.602,0.803c0.004,0.005,0.008,0.011,0.012,0.016c0.031,0.038,0.067,0.069,0.099,0.106    c0.194,0.226,0.395,0.444,0.607,0.651c0.1,0.097,0.205,0.188,0.308,0.28c0.155,0.139,0.311,0.276,0.474,0.405    c0.123,0.098,0.25,0.191,0.378,0.282c0.156,0.111,0.314,0.219,0.476,0.322c0.131,0.083,0.263,0.165,0.398,0.242    c0.174,0.099,0.352,0.191,0.532,0.28c0.128,0.062,0.253,0.128,0.383,0.184c0.205,0.09,0.416,0.17,0.627,0.247    c0.11,0.04,0.22,0.085,0.332,0.122c0.243,0.079,0.492,0.144,0.743,0.204c0.087,0.021,0.174,0.048,0.261,0.067    c0.279,0.059,0.564,0.102,0.852,0.138c0.063,0.008,0.125,0.022,0.189,0.029c0.325,0.034,0.655,0.05,0.988,0.053    c0.024,0,0.048,0.004,0.072,0.004c0.004,0,0.008,0,0.012,0h491.887c0.004,0,0.008,0,0.012,0c0.024,0,0.048-0.004,0.072-0.004    c0.333-0.002,0.664-0.019,0.989-0.053c0.062-0.006,0.123-0.021,0.186-0.028c0.289-0.036,0.575-0.078,0.855-0.139    c0.086-0.018,0.171-0.045,0.257-0.066c0.252-0.061,0.503-0.125,0.748-0.205c0.11-0.036,0.219-0.08,0.328-0.12    c0.213-0.077,0.426-0.158,0.631-0.249c0.128-0.056,0.253-0.12,0.38-0.183c0.182-0.089,0.36-0.182,0.535-0.282    c0.134-0.076,0.265-0.158,0.396-0.241c0.163-0.103,0.321-0.211,0.478-0.323c0.128-0.091,0.253-0.184,0.376-0.281    c0.164-0.129,0.319-0.266,0.475-0.406c0.103-0.092,0.208-0.182,0.308-0.28c0.213-0.208,0.414-0.426,0.607-0.651    c0.032-0.037,0.068-0.068,0.099-0.106c0.004-0.005,0.008-0.011,0.012-0.016c0.214-0.257,0.416-0.525,0.602-0.803    c0.021-0.03,0.037-0.063,0.057-0.093c0.161-0.244,0.314-0.493,0.453-0.751c0.065-0.12,0.117-0.245,0.177-0.367    c0.084-0.173,0.172-0.342,0.246-0.519c0.063-0.151,0.112-0.305,0.168-0.458c0.056-0.156,0.118-0.307,0.167-0.466    c0.055-0.18,0.095-0.362,0.14-0.544c0.034-0.137,0.074-0.27,0.102-0.409c0.057-0.283,0.097-0.568,0.131-0.853    c0.005-0.041,0.014-0.079,0.018-0.12c0.034-0.333,0.05-0.668,0.05-1.002c0-0.007,0.001-0.014,0.001-0.021V96.368    C511.998,96.361,511.997,96.354,511.997,96.347z M474.217,106.408l-218.212,181.71l-47.838-39.828L37.784,106.408H474.217z     M20.079,117.792l165.975,138.213L20.079,394.208V117.792z M37.785,405.592l163.958-136.524l47.839,39.829    c1.861,1.549,4.142,2.324,6.423,2.324s4.563-0.775,6.424-2.324l47.829-39.828l163.957,136.523H37.785z M491.921,394.208    L325.947,256.004l165.975-138.212V394.208z"></path>
	</g>
</g>
<g>
</g>
<g>
</g>
<g>
</g>
<g>
</g>
<g>
</g>
<g>
</g>
<g>
</g>
<g>
</g>
<g>
</g>
<g>
</g>
<g>
</g>
<g>
</g>
<g>
</g>
<g>
</g>
<g>
</g>
</svg>