<svg xmlns="http://www.w3.org/2000/svg" id="Icons" viewBox="0 0 74 74" width="512" height="512"><path d="M3,29a1,1,0,0,1-.593-1.806l10-7.35a1,1,0,1,1,1.184,1.612l-10,7.35A.993.993,0,0,1,3,29Z"></path><path d="M71,72H51.24a1,1,0,0,1,0-2H70V28a1,1,0,0,1,2,0V71A1,1,0,0,1,71,72Z"></path><path d="M34.27,72h-2.9a1,1,0,0,1,0-2h2.9a1,1,0,1,1,0,2Z"></path><path d="M24.37,72H3a1,1,0,0,1-1-1V28a1,1,0,0,1,2,0V70H24.37a1,1,0,1,1,0,2Z"></path><path d="M44.24,72H41.27a1,1,0,0,1,0-2h2.97a1,1,0,1,1,0,2Z"></path><path d="M28.479,50.5a.992.992,0,0,1-.644-.236l-25.48-21.5a1,1,0,1,1,1.29-1.528l25.48,21.5a1,1,0,0,1-.646,1.764Z"></path><path d="M45.521,50.5a1,1,0,0,1-.646-1.764l25.48-21.5a1,1,0,0,1,1.29,1.528l-25.48,21.5A.994.994,0,0,1,45.521,50.5Z"></path><path d="M71,29a.993.993,0,0,1-.591-.194l-10-7.35a1,1,0,1,1,1.184-1.612l10,7.35A1,1,0,0,1,71,29Z"></path><path d="M47.879,12a.993.993,0,0,1-.591-.194L37,4.241,26.712,11.806a1,1,0,0,1-1.184-1.612l10.88-8a1,1,0,0,1,1.184,0l10.88,8A1,1,0,0,1,47.879,12Z"></path><path d="M61,37.44a1,1,0,0,1-1-1V12H14V36.44a1,1,0,0,1-2,0V11a1,1,0,0,1,1-1H61a1,1,0,0,1,1,1V36.44A1,1,0,0,1,61,37.44Z"></path><path d="M52.175,19.667H21.825a1,1,0,0,1,0-2h30.35a1,1,0,0,1,0,2Z"></path><path d="M52.175,27H21.825a1,1,0,0,1,0-2h30.35a1,1,0,0,1,0,2Z"></path><path d="M52.175,34.333H21.825a1,1,0,0,1,0-2h30.35a1,1,0,0,1,0,2Z"></path><path d="M71,72a1,1,0,0,1-.645-.236L43.224,48.873a9.628,9.628,0,0,0-12.448,0L3.645,71.764a1,1,0,1,1-1.29-1.528L29.486,47.344a11.622,11.622,0,0,1,15.028,0L71.645,70.236A1,1,0,0,1,71,72Z"></path></svg>